<svg width="40" height="52" viewBox="0 0 40 52" fill="none" xmlns="http://www.w3.org/2000/svg">
<path d="M23.8788 50H16.0741V28.4452H13.7304C12.1861 28.4637 10.654 28.178 9.22364 27.6046C7.79326 27.0313 6.49389 26.1822 5.40195 25.1071C4.31 24.0318 3.44749 22.7523 2.86531 21.3439C2.28313 19.9356 1.99274 18.4266 2.01173 16.9064V15.3831C1.97001 14.8535 2.03985 14.3212 2.21704 13.8195C2.39423 13.3177 2.67524 12.8572 3.04156 12.4674C3.40812 12.0776 3.8525 11.7664 4.34679 11.5536C4.84109 11.3409 5.37452 11.2313 5.91405 11.2313C6.45358 11.2313 6.98748 11.3409 7.48177 11.5536C7.9763 11.7664 8.42067 12.0776 8.787 12.4674C9.15356 12.8572 9.43387 13.3177 9.61106 13.8195C9.78824 14.3212 9.85809 14.8535 9.81637 15.3831V16.8603C9.81637 17.8946 10.234 18.8867 10.977 19.6181C11.7197 20.3495 12.7268 20.7604 13.7773 20.7604H16.121V6.15204C16.0793 5.62249 16.1491 5.08992 16.3263 4.58818C16.5035 4.08644 16.7845 3.62619 17.1508 3.23639C17.5174 2.84635 17.9618 2.53534 18.4561 2.32259C18.9504 2.10985 19.4838 2 20.0233 2C20.5629 2 21.0968 2.10985 21.5913 2.32259C22.0856 2.53534 22.53 2.84635 22.8963 3.23639C23.2628 3.62619 23.5432 4.08644 23.7203 4.58818C23.8975 5.08992 23.9676 5.62249 23.9259 6.15204V33.0839H25.9886C27.1012 33.0839 28.168 32.6487 28.9548 31.8739C29.7416 31.0992 30.1834 30.0487 30.1834 28.953V27.6837C30.1417 27.1541 30.2115 26.6218 30.3887 26.12C30.5659 25.6181 30.8469 25.1578 31.2133 24.768C31.5798 24.3782 32.0242 24.067 32.5185 23.8542C33.0128 23.6415 33.5462 23.5316 34.0857 23.5316C34.6253 23.5316 35.1592 23.6415 35.6537 23.8542C36.148 24.067 36.5924 24.3782 36.9587 24.768C37.3253 25.1578 37.6056 25.6181 37.7828 26.12C37.9599 26.6218 38.03 27.1541 37.9883 27.6837V28.9761C37.9883 30.5247 37.6785 32.0582 37.0766 33.489C36.4747 34.9198 35.5928 36.2197 34.4807 37.3147C33.3686 38.4097 32.0479 39.2786 30.5947 39.8712C29.1416 40.4637 27.5842 40.7687 26.0113 40.7687H23.9259L23.8788 50Z" stroke="#00B373" stroke-width="3"/>
</svg>
