<svg width="141" height="152" viewBox="0 0 141 152" fill="none" xmlns="http://www.w3.org/2000/svg">
<path d="M80.5368 137.278H60.605L60.4867 82.2431H54.5012C50.5574 82.2904 46.6431 81.5608 42.987 80.0969C39.3309 78.633 36.0079 76.465 33.2133 73.7201C30.4188 70.9745 28.2091 67.7077 26.7145 64.1118C25.22 60.516 24.4701 56.6634 24.5103 52.7817L24.5019 48.8924C24.3924 47.5404 24.5679 46.1812 25.0176 44.9002C25.4674 43.6191 26.1825 42.4433 27.1159 41.4481C28.0499 40.4528 29.183 39.6581 30.4442 39.115C31.7054 38.5718 33.0671 38.2919 34.445 38.2919C35.8228 38.2919 37.1869 38.5718 38.4504 39.115C39.7145 39.6581 40.8511 40.4528 41.7888 41.4481C42.7271 42.4433 43.4455 43.6191 43.9007 44.9002C44.356 46.1812 44.5373 47.5404 44.4336 48.8924L44.4417 52.664C44.4474 55.3048 45.5195 57.8379 47.4209 59.7054C49.3217 61.5728 51.8959 62.6219 54.5786 62.6219H60.5641L60.4839 25.3234C60.3745 23.9713 60.5499 22.6115 60.9997 21.3305C61.4494 20.0494 62.1645 18.8743 63.0979 17.879C64.0319 16.8832 65.1651 16.0891 66.4262 15.5459C67.6874 15.0027 69.0491 14.7222 70.427 14.7222C71.8048 14.7222 73.1689 15.0027 74.433 15.5459C75.6966 16.0891 76.8331 16.8832 77.7708 17.879C78.7091 18.8743 79.4275 20.0494 79.8827 21.3305C80.338 22.6115 80.5199 23.9713 80.4162 25.3234L80.5642 94.0868H85.832C88.6734 94.0868 91.3955 92.9756 93.4006 90.9975C95.4057 89.0194 96.5282 86.3372 96.5222 83.5395L96.5152 80.2987C96.4057 78.9467 96.5812 77.5875 97.0309 76.3064C97.4807 75.0248 98.1958 73.8497 99.1292 72.8544C100.063 71.8591 101.196 71.0644 102.458 70.5213C103.719 69.9781 105.08 69.6976 106.458 69.6976C107.836 69.6976 109.2 69.9781 110.464 70.5213C111.728 71.0644 112.864 71.8591 113.802 72.8544C114.74 73.8497 115.459 75.0248 115.914 76.3064C116.369 77.5875 116.551 78.9467 116.448 80.2987L116.455 83.5987C116.463 87.5525 115.68 91.4679 114.151 95.1211C112.622 98.7743 110.377 102.093 107.543 104.889C104.708 107.685 101.34 109.903 97.6326 111.416C93.9248 112.929 89.9491 113.708 85.9323 113.708H80.6064L80.5368 137.278Z" stroke="#B9A89C" stroke-width="2"/>
</svg>
