<svg viewBox="0 0 16 16" fill="none" xmlns="http://www.w3.org/2000/svg">
    <g clip-path="url(#clip0_5166_10011)">
        <path d="M12.0625 7.1875C12.4077 7.1875 12.6875 6.90768 12.6875 6.5625C12.6875 6.21732 12.4077 5.9375 12.0625 5.9375C11.7173 5.9375 11.4375 6.21732 11.4375 6.5625C11.4375 6.90768 11.7173 7.1875 12.0625 7.1875Z" fill="#212322"/>
        <path d="M12.0625 9.90625C12.4077 9.90625 12.6875 9.62643 12.6875 9.28125C12.6875 8.93607 12.4077 8.65625 12.0625 8.65625C11.7173 8.65625 11.4375 8.93607 11.4375 9.28125C11.4375 9.62643 11.7173 9.90625 12.0625 9.90625Z" fill="#212322"/>
        <path d="M12.0625 12.6252C12.4077 12.6252 12.6875 12.3454 12.6875 12.0002C12.6875 11.6551 12.4077 11.3752 12.0625 11.3752C11.7173 11.3752 11.4375 11.6551 11.4375 12.0002C11.4375 12.3454 11.7173 12.6252 12.0625 12.6252Z" fill="#212322"/>
        <path d="M12.1875 1.25V1.75H12.6875H13.5C14.6024 1.75 15.5 2.64764 15.5 3.75V8.3125C15.5 8.38155 15.444 8.4375 15.375 8.4375C15.306 8.4375 15.25 8.38155 15.25 8.3125V3.75C15.25 2.78461 14.4654 2 13.5 2H12.6875H12.1875V2.5V3.125C12.1875 3.19405 12.1315 3.25 12.0625 3.25C11.9935 3.25 11.9375 3.19405 11.9375 3.125V2.5V2H11.4375H8.59375H8.09375V2.5V3.125C8.09375 3.19405 8.0378 3.25 7.96875 3.25C7.8997 3.25 7.84375 3.19405 7.84375 3.125V2.5V2H7.34375H4.53125H4.03125V2.5V3.125C4.03125 3.19405 3.9753 3.25 3.90625 3.25C3.8372 3.25 3.78125 3.19405 3.78125 3.125V2.5V2H3.28125H2.5C1.53461 2 0.75 2.78461 0.75 3.75V13.5C0.75 14.4654 1.53461 15.25 2.5 15.25H7.28125C7.3503 15.25 7.40625 15.306 7.40625 15.375C7.40625 15.444 7.3503 15.5 7.28125 15.5H2.5C1.39764 15.5 0.5 14.6024 0.5 13.5V3.75C0.5 2.64764 1.39764 1.75 2.5 1.75H3.28125H3.78125V1.25V0.625C3.78125 0.555955 3.8372 0.5 3.90625 0.5C3.9753 0.5 4.03125 0.555955 4.03125 0.625V1.25V1.75H4.53125H7.34375H7.84375V1.25V0.625C7.84375 0.555955 7.8997 0.5 7.96875 0.5C8.0378 0.5 8.09375 0.555955 8.09375 0.625V1.25V1.75H8.59375H11.4375H11.9375V1.25V0.625C11.9375 0.555955 11.9935 0.5 12.0625 0.5C12.1315 0.5 12.1875 0.555955 12.1875 0.625V1.25Z" fill="#212322" stroke="#212322"/>
        <path d="M9.34375 7.1875C9.68893 7.1875 9.96875 6.90768 9.96875 6.5625C9.96875 6.21732 9.68893 5.9375 9.34375 5.9375C8.99857 5.9375 8.71875 6.21732 8.71875 6.5625C8.71875 6.90768 8.99857 7.1875 9.34375 7.1875Z" fill="#212322"/>
        <path d="M9.34375 9.90625C9.68893 9.90625 9.96875 9.62643 9.96875 9.28125C9.96875 8.93607 9.68893 8.65625 9.34375 8.65625C8.99857 8.65625 8.71875 8.93607 8.71875 9.28125C8.71875 9.62643 8.99857 9.90625 9.34375 9.90625Z" fill="#212322"/>
        <path d="M9.34375 12.6252C9.68893 12.6252 9.96875 12.3454 9.96875 12.0002C9.96875 11.6551 9.68893 11.3752 9.34375 11.3752C8.99857 11.3752 8.71875 11.6551 8.71875 12.0002C8.71875 12.3454 8.99857 12.6252 9.34375 12.6252Z" fill="#212322"/>
        <path d="M6.625 9.90625C6.97018 9.90625 7.25 9.62643 7.25 9.28125C7.25 8.93607 6.97018 8.65625 6.625 8.65625C6.27982 8.65625 6 8.93607 6 9.28125C6 9.62643 6.27982 9.90625 6.625 9.90625Z" fill="#212322"/>
        <path d="M3.90625 7.1875C4.25143 7.1875 4.53125 6.90768 4.53125 6.5625C4.53125 6.21732 4.25143 5.9375 3.90625 5.9375C3.56107 5.9375 3.28125 6.21732 3.28125 6.5625C3.28125 6.90768 3.56107 7.1875 3.90625 7.1875Z" fill="#212322"/>
        <path d="M3.90625 9.90625C4.25143 9.90625 4.53125 9.62643 4.53125 9.28125C4.53125 8.93607 4.25143 8.65625 3.90625 8.65625C3.56107 8.65625 3.28125 8.93607 3.28125 9.28125C3.28125 9.62643 3.56107 9.90625 3.90625 9.90625Z" fill="#212322"/>
        <path d="M3.90625 12.625C4.25143 12.625 4.53125 12.3452 4.53125 12C4.53125 11.6548 4.25143 11.375 3.90625 11.375C3.56107 11.375 3.28125 11.6548 3.28125 12C3.28125 12.3452 3.56107 12.625 3.90625 12.625Z" fill="#212322"/>
        <path d="M6.625 12.625C6.97018 12.625 7.25 12.3452 7.25 12C7.25 11.6548 6.97018 11.375 6.625 11.375C6.27982 11.375 6 11.6548 6 12C6 12.3452 6.27982 12.625 6.625 12.625Z" fill="#212322"/>
        <path d="M6.625 7.1875C6.97018 7.1875 7.25 6.90768 7.25 6.5625C7.25 6.21732 6.97018 5.9375 6.625 5.9375C6.27982 5.9375 6 6.21732 6 6.5625C6 6.90768 6.27982 7.1875 6.625 7.1875Z" fill="#212322"/>
        <path d="M15.4073 7.29785L15.342 13.3987C15.3302 14.4921 14.4425 15.3734 13.349 15.3772L7.26172 15.3984" stroke="#212322" stroke-width="1.28"/>
    </g>
    <defs>
        <clipPath id="clip0_5166_10011">
            <rect width="16" height="16" fill="white"/>
        </clipPath>
    </defs>
</svg>
