<svg width="24" height="24" viewBox="0 0 24 24" fill="none" xmlns="http://www.w3.org/2000/svg">
<rect width="24" height="24" rx="12" fill="#82CEEE"/>
<path d="M18.6672 12.7442L15.7835 13.7364L14.6207 13.0698V12V10.9457L15.7835 10.2791L18.6672 11.2713C18.8688 11.3488 19.1014 11.2248 19.1634 11.0233C19.2409 10.8217 19.1169 10.5891 18.9153 10.5271L16.6827 9.76744L18.7758 8.55814C18.9618 8.44961 19.0238 8.20155 18.9153 8.0155C18.8068 7.82946 18.5587 7.76744 18.3727 7.87597L16.2796 9.08527L16.7293 6.77519C16.7758 6.55814 16.6362 6.35659 16.4192 6.31008C16.2021 6.26357 16.0006 6.4031 15.9541 6.62015L15.3649 9.6124L14.2021 10.2791L13.3184 9.76744L13.3029 9.75194L12.4037 9.22481V7.89147L14.6983 5.89147C14.8688 5.75194 14.8843 5.50388 14.7293 5.33333C14.5897 5.16279 14.3417 5.14729 14.1711 5.30233L12.4037 6.85271V4.4031C12.4037 4.18605 12.2331 4 12.0006 4C11.7835 4 11.5975 4.17054 11.5975 4.4031V6.82171L9.83003 5.28682C9.65949 5.14729 9.41143 5.16279 9.27189 5.31783C9.13236 5.48837 9.14786 5.73643 9.3029 5.87597L11.5975 7.87597V9.2093L10.6983 9.73643L9.79903 10.2636L8.63623 9.5969L8.04709 6.60465C8.00058 6.3876 7.79903 6.24806 7.58197 6.29457C7.36492 6.34109 7.22538 6.54264 7.27189 6.75969L7.72151 9.06977L5.62848 7.86047C5.44244 7.75194 5.19437 7.81395 5.08585 8C4.97732 8.18605 5.03934 8.43411 5.22538 8.54264L7.31841 9.75194L5.08585 10.5116C4.8843 10.5891 4.76027 10.8062 4.83779 11.0078C4.91531 11.2093 5.13236 11.3333 5.33391 11.2558L8.21763 10.2636L9.38042 10.9302V12V13.0543H9.39593L8.23313 13.7209L5.34941 12.7287C5.14786 12.6512 4.91531 12.7752 4.85329 12.9767C4.77577 13.1783 4.8998 13.4109 5.10135 13.4729L7.33391 14.2326L5.24089 15.4419C5.05484 15.5504 4.99282 15.7985 5.10135 15.9845C5.20988 16.1705 5.45794 16.2326 5.64399 16.124L7.73701 14.9147L7.2874 17.2248C7.24089 17.4419 7.38042 17.6434 7.59748 17.6899C7.81453 17.7364 8.01608 17.5969 8.06259 17.3798L8.65174 14.3876L9.81453 13.7209L10.7293 14.2481L11.6285 14.7752V16.1085L9.33391 18.1085C9.16337 18.2481 9.14786 18.4961 9.3029 18.6667C9.44244 18.8372 9.6905 18.8527 9.86104 18.6977L11.6285 17.1473V19.5969C11.6285 19.814 11.799 20 12.0316 20C12.2486 20 12.4347 19.8295 12.4347 19.5969V17.1783L14.2021 18.7287C14.3727 18.8682 14.6207 18.8527 14.7603 18.6977C14.8998 18.5271 14.8843 18.2791 14.7293 18.1395L12.4037 16.124V14.7907L13.3029 14.2636L14.2021 13.7364L15.3649 14.4031L15.9541 17.3953C16.0006 17.6124 16.2021 17.7519 16.4192 17.7054C16.6362 17.6589 16.7758 17.4574 16.7293 17.2403L16.2796 14.9302L18.3727 16.1395C18.5587 16.2481 18.8068 16.186 18.9153 16C19.0238 15.814 18.9618 15.5659 18.7758 15.4574L16.6827 14.2481L18.9153 13.4884C19.1169 13.4109 19.2409 13.1938 19.1634 12.9922C19.0858 12.7907 18.8688 12.6667 18.6672 12.7442ZM13.7835 12V13.0543L12.8843 13.5814L12.0006 14.093L11.0858 13.5659L10.1866 13.0388V12V10.9457L11.0858 10.4186L11.9851 9.89147L12.8843 10.4186L12.8998 10.4341L13.7835 10.9457V12Z" fill="#212322"/>
</svg>
