<svg width="208" height="181" viewBox="0 0 208 181" fill="none" xmlns="http://www.w3.org/2000/svg">
<path d="M205.983 65.8884C205.909 65.8368 205.821 65.8075 205.71 65.8052L107.508 6.58106C107.06 6.1384 106.609 6.1384 106.176 6.1384H106.174H106.173L4.47934 0.950065L4.47934 0.95H4.47679C3.59839 0.95 2.9363 1.16876 2.38387 1.55347C1.83283 1.93722 1.39405 2.48397 0.958464 3.134L0.95 3.14663V3.16184V3.16437V3.1669V3.16944V3.17197V3.1745V3.17704V3.17957V3.1821V3.18463V3.18717V3.1897V3.19223V3.19476V3.19729V3.19983V3.20236V3.20489V3.20742V3.20995V3.21248V3.21501V3.21754V3.22006V3.22259V3.22512V3.22765V3.23017V3.2327V3.23523V3.23775V3.24028V3.2428V3.24532V3.24784V3.25037V3.25289V3.25541V3.25793V3.26045V3.26297V3.26548V3.268V3.27052V3.27303V3.27555V3.27806V3.28057V3.28308V3.28559V3.2881V3.29061V3.29312V3.29563V3.29813V3.30064V3.30314V3.30564V3.30814V3.31064V3.31314V3.31564V3.31814V3.32063V3.32313V3.32562V3.32811V3.3306V3.33309V3.33558V3.33807V3.34055V3.34304V3.34552V3.348V3.35048V3.35296V3.35544V3.35791V3.36039V3.36286V3.36533V3.3678V3.37027V3.37273V3.3752V3.37766V3.38012V3.38258V3.38504V3.38749V3.38995V3.3924V3.39485V3.3973V3.39975V3.40219V3.40464V3.40708V3.40952V3.41195V3.41439V3.41682V3.41926V3.42169V3.42411V3.42654V3.42896V3.43139V3.4338V3.43622V3.43864V3.44105V3.44346V3.44587V3.44828V3.45068V3.45308V3.45548V3.45788V3.46028V3.46267V3.46506V3.46745V3.46984V3.47222V3.4746V3.47698V3.47936V3.48173V3.4841V3.48647V3.48884V3.4912V3.49356V3.49592V3.49828V3.50063V3.50298V3.50533V3.50767V3.51002V3.51235V3.51469V3.51703V3.51936V3.52169V3.52401V3.52634V3.52866V3.53097V3.53329V3.5356V3.53791V3.54021V3.54252V3.54482V3.54711V3.54941V3.5517V3.55399V3.55627V3.55855V3.56083V3.5631V3.56538V3.56764V3.56991V3.57217V3.57443V3.57669V3.57894V3.58119V3.58343V3.58568V3.58792V3.59015V3.59238V3.59461V3.59684V3.59906V3.60128V3.60349V3.60571V3.60791V3.61012V3.61232V3.61452V3.61671V3.6189V3.62109V3.62327V3.62545V3.62762V3.6298V3.63196V3.63413V3.63629V3.63844V3.6406V3.64274V3.64489V3.64703V3.64917V3.6513V3.65343V3.65556V3.65768V3.65979V3.66191V3.66402V3.66612V3.66822V3.67032V3.67241V3.6745V3.67659V3.67867V3.68074V3.68281V3.68488V3.68695V3.68901V3.69106V3.69311V3.69516V3.6972V3.69924V3.70127V3.7033V3.70532V3.70734V3.70936V3.71137V3.71338V3.71538V3.71738V3.71937V3.72136V3.72334V3.72532V3.72729V3.72926V3.73123V3.73319V3.73514V3.7371V3.73904V3.74098V3.74292V3.74485V3.74678V3.7487V3.75062V3.75253V3.75444V3.75634V3.75824V3.76013V3.76202V3.7639V3.76578V3.76765V3.76952V3.77138V3.77324V3.77509V3.77694V3.77878V3.78062V3.78245V3.78427V3.78609V3.78791V3.78972V3.79153V3.79333V3.79512V3.79691V3.79869V3.80047V3.80225V3.80401V3.80577V3.80753V3.80928V3.81103V3.81277V3.8145V3.81623V3.81796V3.81967V3.82139V3.82309V3.82479V3.82649V3.82818V3.82986V3.83154V3.83321V3.83488V3.83654V3.83819V3.83984V3.84149V3.84312V3.84476V3.84638V3.848V3.84961V3.85122V3.85282V3.85442V3.85601V3.85759V3.85917V3.86074V3.86231V3.86387V3.86542V3.86697V3.86851V3.87004V3.87157V3.87309V3.87461V3.87612V3.87762V3.87912V3.88061V3.88209V3.88357V3.88504V3.88651V3.88796V3.88942V3.89086V3.8923V3.89373V3.89516V3.89658V3.89799V3.8994V3.9008V3.90219V3.90358V3.90496V3.90633V3.9077V3.90906V3.91041V3.91176V3.91309V3.91443V3.91575V3.91707V3.91838V3.91969V3.92099V3.92228V3.92356V3.92484V3.92611V3.92737V3.92863V3.92988V3.93112V3.93236V3.93359V3.93481V3.93602V3.93723V3.93843V3.93962V3.94081V3.94198V3.94315V3.94432V3.94547V3.94662V3.94776V3.9489V3.95003V3.95114V3.95226V3.95336V3.95446V3.95555V3.95663V3.95771V3.95877V3.95983V3.96088V3.96193V3.96297V3.964V3.96502V3.96603V3.96704V3.96804V3.96903V3.97001V3.97099V3.97195V3.97291V3.97387V3.97481V3.97575V3.97668V3.9776V3.97851V3.97941V3.98031V3.9812V3.98208V3.98295V3.98382V3.98468V3.98552V3.98637V3.9872V3.98802V3.98884V3.98965V3.99045V3.99124V3.99202V3.9928V3.99357V3.99432V3.99508V3.99582V3.99655V3.99728V3.99799V3.9987V3.9994V4.0001V4.00078V4.00146V4.00212V4.00278V4.00343V4.00407V4.0047V4.00533V4.00594V4.00655V4.00715V4.00774V4.00832V4.00889V4.00945V4.01001V4.01055V4.01109V4.01162V4.01214V4.01265V4.01315V4.01364V4.01413V4.0146V4.01507V4.01553V4.01597V4.01641V4.01684V4.01727V4.01768V4.01808V4.01847V4.01886V4.01924V4.0196V4.01996V4.02031V4.02065V4.02098V4.0213V4.02161V4.02191V4.0222V4.02249V4.02276V4.02303V4.02328V4.02353V4.02376V4.02399V4.02421V4.02442V4.02462V4.02481V4.02499V4.02516V4.02532V4.02547V4.02561V4.02574V4.02586V4.02598V4.02608V4.02617V4.02626V4.02633V4.02639V4.02645V4.02649V4.02653V4.02655V4.02657L1 4.02657H0.95V32.9952C0.95 33.6487 1.05938 34.1997 1.33794 34.6431C1.61633 35.0863 2.05998 35.416 2.71709 35.635L27.8514 51.1555L5.75353 65.3807L5.75291 65.3797L5.74533 65.3873C5.30777 65.8226 4.9776 66.2599 4.75709 66.7535C4.53649 67.2473 4.42679 67.7949 4.42677 68.4493L4.42681 68.4507L5.73059 112.983C5.73059 112.983 5.73059 112.984 5.73059 112.984C5.73071 113.423 5.84096 113.97 6.06089 114.463C6.28023 114.954 6.61175 115.397 7.0594 115.621L104.407 179.609L104.42 179.618H104.435C104.638 179.618 104.844 179.719 105.064 179.829L105.07 179.832C105.283 179.937 105.509 180.05 105.738 180.05H105.741C106.174 180.05 106.626 180.05 107.074 179.607L204.417 115.621C204.865 115.397 205.197 114.954 205.416 114.463C205.636 113.97 205.746 113.423 205.746 112.984C205.746 112.983 205.746 112.983 205.746 112.983L207.05 68.4507V68.4493V68.4467C207.05 68.0191 207.05 67.5736 206.615 67.1314V67.1311V67.1308V67.1304V67.1301V67.1297V67.1294V67.129V67.1286V67.1283V67.1279V67.1275V67.1272V67.1268V67.1264V67.126V67.1256V67.1252V67.1248V67.1244V67.124V67.1236V67.1232V67.1228V67.1223V67.1219V67.1215V67.121V67.1206V67.1202V67.1197V67.1193V67.1188V67.1183V67.1179V67.1174V67.1169V67.1164V67.116V67.1155V67.115V67.1145V67.114V67.1135V67.113V67.1125V67.1119V67.1114V67.1109V67.1104V67.1098V67.1093V67.1087V67.1082V67.1076V67.1071V67.1065V67.1059V67.1054V67.1048V67.1042V67.1036V67.103V67.1024V67.1018V67.1012V67.1006V67.1V67.0994V67.0988V67.0981V67.0975V67.0968V67.0962V67.0956V67.0949V67.0942V67.0936V67.0929V67.0922V67.0915V67.0909V67.0902V67.0895V67.0888V67.0881V67.0873V67.0866V67.0859V67.0852V67.0844V67.0837V67.083V67.0822V67.0815V67.0807V67.0799V67.0792V67.0784V67.0776V67.0768V67.076V67.0752V67.0744V67.0736V67.0728V67.072V67.0711V67.0703V67.0695V67.0686V67.0678V67.0669V67.0661V67.0652V67.0643V67.0634V67.0626V67.0617V67.0608V67.0599V67.059V67.0581V67.0571V67.0562V67.0553V67.0543V67.0534V67.0524V67.0515V67.0505V67.0496V67.0486V67.0476V67.0466V67.0456V67.0446V67.0436V67.0426V67.0416V67.0406V67.0395V67.0385V67.0375V67.0364V67.0353V67.0343V67.0332V67.0321V67.0311V67.03V67.0289V67.0278V67.0267V67.0256V67.0244V67.0233V67.0222V67.021V67.0199V67.0187V67.0176V67.0164V67.0152V67.0141V67.0129V67.0117V67.0105V67.0093V67.008V67.0068V67.0056V67.0044V67.0031V67.0019V67.0006V66.9994V66.9981V66.9968V66.9955V66.9942V66.9929V66.9916V66.9903V66.989V66.9877V66.9863V66.985V66.9837V66.9823V66.9809V66.9796V66.9782V66.9768V66.9754V66.974V66.9726V66.9712V66.9698V66.9683V66.9669V66.9655V66.964V66.9625V66.9611V66.9596V66.9581V66.9566V66.9551V66.9536V66.9521V66.9506V66.9491V66.9475V66.946V66.9445V66.9429V66.9413V66.9398V66.9382V66.9366V66.935V66.9334V66.9318V66.9302V66.9285V66.9269V66.9252V66.9236V66.9219V66.9203V66.9186V66.9169V66.9152V66.9135V66.9118V66.9101V66.9084V66.9066V66.9049V66.9031V66.9014V66.8996V66.8978V66.896V66.8943V66.8925V66.8907V66.8888V66.887V66.8852V66.8833V66.8815V66.8796V66.8778V66.8759V66.874V66.8721V66.8702V66.8683V66.8664V66.8645V66.8625V66.8606V66.8586V66.8567V66.8547V66.8527V66.8507V66.8487V66.8467V66.8447V66.8427V66.8407V66.8386V66.8366V66.8345V66.8324V66.8304V66.8283V66.8262V66.8241V66.822V66.8199V66.8177V66.8156V66.8134V66.8113V66.8091V66.8069V66.8047V66.8026V66.8003V66.7981V66.7959V66.7937V66.7914V66.7892V66.7869V66.7847V66.7824V66.7801V66.7778V66.7755V66.7732V66.7709V66.7685V66.7662V66.7638V66.7615V66.7591V66.7567V66.7543V66.7519V66.7495V66.7471V66.7447V66.7422V66.7398V66.7373V66.7348V66.7324V66.7299V66.7274V66.7249V66.7223V66.7198V66.699L206.601 66.6844C206.439 66.5238 206.341 66.3653 206.254 66.225C206.226 66.1805 206.199 66.1378 206.172 66.0975C206.117 66.0149 206.059 65.9411 205.983 65.8884ZM16.8333 7.97807L104.854 12.7232L192.034 64.5034L102.277 62.3465L16.8333 7.97807ZM115.33 85.694L106.691 68.9337L193.36 71.0893L170.045 85.694H115.33ZM84.0015 77.4664L7.56899 31.2375V10.1709L95.662 66.2954L84.0015 77.4664ZM14.1306 68.016L34.4645 54.6731L53.9299 67.1531L34.0286 80.496L14.1306 68.016ZM102.646 130.738V170.827L11.9143 110.794L11.0479 74.161L102.646 130.738ZM159.45 92.7118L106.173 125.031L40.2071 84.4455L60.541 71.1027L83.1116 84.9209C83.1118 84.9211 83.1121 84.9212 83.1123 84.9214C84.4393 85.8009 86.2028 85.3604 87.0855 84.4827C87.0856 84.4826 87.0857 84.4824 87.0859 84.4823L100.509 71.5585L110.473 90.9519C110.919 92.2777 112.252 92.7118 113.561 92.7118H159.45ZM200.863 74.161L199.997 110.794L109.265 170.827V130.738L200.863 74.161Z" fill="#212322" stroke="#212322" stroke-width="0.1"/>
</svg>
