<svg width="17" height="17" viewBox="0 0 17 17" fill="none" xmlns="http://www.w3.org/2000/svg">
<path d="M8.5 0.55C12.8907 0.55 16.45 4.10933 16.45 8.5C16.45 12.8907 12.8907 16.45 8.5 16.45C4.10933 16.45 0.55 12.8907 0.55 8.5C0.55 4.10933 4.10933 0.55 8.5 0.55ZM8.5 1.59284C4.68529 1.59284 1.59284 4.68529 1.59284 8.5C1.59284 12.3147 4.68529 15.4072 8.5 15.4072C12.3147 15.4072 15.4072 12.3147 15.4072 8.5C15.4072 4.68529 12.3147 1.59284 8.5 1.59284Z" fill="#212322" stroke="white" stroke-width="0.1"/>
<path d="M7.91987 7.96359L7.91994 4.72019C7.91994 4.72019 7.91994 4.72018 7.91994 4.72018C7.92 4.43219 8.15344 4.19874 8.44141 4.19874C8.71953 4.19874 8.94685 4.41657 8.96204 4.69088L8.96284 4.72085L8.96278 7.96359L8.96278 8.01359H9.01278H12.2802C12.5682 8.01359 12.8017 8.24704 12.8017 8.53502C12.8017 8.81315 12.5838 9.04047 12.3095 9.05565L12.2795 9.05646H9.01278H8.96278L8.96278 9.10646L8.96284 12.2805C8.96284 12.5685 8.72939 12.802 8.44141 12.802C8.16328 12.802 7.93596 12.5841 7.92078 12.3098L7.91997 12.2799L7.91991 9.10646L7.91991 9.05646H7.86991H4.71991C4.43192 9.05646 4.19844 8.823 4.19844 8.53502C4.19844 8.2569 4.41626 8.02958 4.69057 8.01439L4.72055 8.01359H7.86987H7.91987L7.91987 7.96359Z" fill="#212322" stroke="white" stroke-width="0.1"/>
</svg>
