<svg width="16" height="17" viewBox="0 0 16 17" fill="none" xmlns="http://www.w3.org/2000/svg">
    <path d="M14.9142 4.75H13.9963C14.0017 4.68144 14 4.93903 14 1.58578C14 0.987062 13.5129 0.5 12.9142 0.5H3.08578C2.48706 0.5 2 0.987062 2 1.58578C2 4.93181 1.99828 4.68094 2.00372 4.75H1.08578C0.487062 4.75 0 5.23706 0 5.83578V11.6642C0 12.2629 0.487062 12.75 1.08578 12.75H3.75V15.4142C3.75 16.0129 4.23706 16.5 4.83578 16.5H11.1642C11.7629 16.5 12.25 16.0129 12.25 15.4142V12.75H14.9142C15.5129 12.75 16 12.2629 16 11.6642V5.83578C16 5.23706 15.5129 4.75 14.9142 4.75ZM3 4.66422V1.58578C3 1.53847 3.03847 1.5 3.08578 1.5H12.9142C12.9615 1.5 13 1.53847 13 1.58578V4.66422C13 4.71153 12.9615 4.75 12.9142 4.75H3.08578C3.03847 4.75 3 4.71153 3 4.66422ZM11.25 15.4142C11.25 15.4615 11.2115 15.5 11.1642 15.5H4.83578C4.78847 15.5 4.75 15.4615 4.75 15.4142V10.3358C4.75 10.2885 4.78847 10.25 4.83578 10.25H11.1642C11.2115 10.25 11.25 10.2885 11.25 10.3358V15.4142ZM15 11.6642C15 11.7115 14.9615 11.75 14.9142 11.75H12.25V10.3358C12.25 9.73706 11.7629 9.25 11.1642 9.25H4.83578C4.23706 9.25 3.75 9.73706 3.75 10.3358V11.75H1.08578C1.03847 11.75 1 11.7115 1 11.6642V5.83578C1 5.78847 1.03847 5.75 1.08578 5.75H14.9142C14.9615 5.75 15 5.78847 15 5.83578V11.6642Z" fill="#212322"/>
</svg>