<svg width="24" height="24" viewBox="0 0 24 24" fill="none" xmlns="http://www.w3.org/2000/svg">
<rect width="24" height="24" rx="12" fill="#87E6C4"/>
<g clip-path="url(#clip0_5098_4041)">
<path d="M11.5291 14.3744V8.19434C11.5291 7.93542 11.3192 7.72559 11.0603 7.72559C10.8015 7.72559 10.5916 7.93542 10.5916 8.19434V14.3744C9.76758 14.5839 9.15625 15.3319 9.15625 16.2203C9.15625 17.2704 10.0104 18.1246 11.0603 18.1246C12.1102 18.1246 12.9645 17.2704 12.9645 16.2203C12.9645 15.3319 12.353 14.5839 11.5291 14.3744ZM11.0603 17.1871C10.5273 17.1871 10.0938 16.7534 10.0938 16.2203C10.0938 15.6871 10.5273 15.2534 11.0603 15.2534C11.5934 15.2534 12.027 15.6871 12.027 16.2203C12.027 16.7534 11.5934 17.1871 11.0603 17.1871Z" fill="#3B3B3A"/>
<path d="M13.3867 13.2415V6.32666C13.3867 5.0437 12.3431 4 11.0603 4C9.77759 4 8.73401 5.0437 8.73401 6.32666V13.2415C7.81995 13.9559 7.28125 15.0515 7.28125 16.2202C7.28125 18.3044 8.97656 20 11.0603 20C13.1442 20 14.8395 18.3044 14.8395 16.2202C14.8395 15.0515 14.3008 13.9559 13.3867 13.2415ZM11.0603 19.0625C9.49341 19.0625 8.21875 17.7875 8.21875 16.2202C8.21875 15.2775 8.68506 14.3978 9.46619 13.8672C9.5946 13.7799 9.67151 13.6346 9.67151 13.4794V6.32666C9.67151 5.56067 10.2946 4.9375 11.0603 4.9375C11.8262 4.9375 12.4492 5.56067 12.4492 6.32666V13.4794C12.4492 13.6346 12.5261 13.7799 12.6545 13.8672C13.4357 14.3978 13.902 15.2775 13.902 16.2202C13.902 17.7875 12.6272 19.0625 11.0603 19.0625Z" fill="#3B3B3A"/>
<path d="M16.2457 11.484H14.793C14.5341 11.484 14.3242 11.6938 14.3242 11.9528C14.3242 12.2117 14.5341 12.4215 14.793 12.4215H16.2457C16.5045 12.4215 16.7145 12.2117 16.7145 11.9528C16.7145 11.6938 16.5045 11.484 16.2457 11.484Z" fill="#3B3B3A"/>
<path d="M16.2457 9.60864H14.793C14.5341 9.60864 14.3242 9.81848 14.3242 10.0774C14.3242 10.3363 14.5341 10.5461 14.793 10.5461H16.2457C16.5045 10.5461 16.7145 10.3363 16.7145 10.0774C16.7145 9.81848 16.5045 9.60864 16.2457 9.60864Z" fill="#3B3B3A"/>
<path d="M16.2457 7.73328H14.793C14.5341 7.73328 14.3242 7.94312 14.3242 8.20203C14.3242 8.46094 14.5341 8.67078 14.793 8.67078H16.2457C16.5045 8.67078 16.7145 8.46094 16.7145 8.20203C16.7145 7.94312 16.5045 7.73328 16.2457 7.73328Z" fill="#3B3B3A"/>
<path d="M14.793 6.79541H16.2457C16.5045 6.79541 16.7145 6.58557 16.7145 6.32666C16.7145 6.06787 16.5045 5.85791 16.2457 5.85791H14.793C14.5341 5.85791 14.3242 6.06787 14.3242 6.32666C14.3242 6.58557 14.5341 6.79541 14.793 6.79541Z" fill="#3B3B3A"/>
</g>
<defs>
<clipPath id="clip0_5098_4041">
<rect width="16" height="16" fill="white" transform="translate(4 4)"/>
</clipPath>
</defs>
</svg>
