<svg width="17" height="17" viewBox="0 0 17 17" fill="none" xmlns="http://www.w3.org/2000/svg">
<g clip-path="url(#clip0_4860_1390)">
<path d="M10.672 9.91695V9.94171L10.6917 9.95672C11.5895 10.6408 12.1182 11.6972 12.1182 12.8315C12.1182 14.8267 10.4949 16.45 8.49951 16.45C6.50427 16.45 4.88105 14.8267 4.88105 12.8315C4.88105 11.697 5.40978 10.6407 6.30775 9.95666L6.32745 9.94165V9.91688V2.72194C6.32745 1.52437 7.30188 0.55 8.49951 0.55C9.69735 0.55 10.672 1.52438 10.672 2.72194V9.91695ZM10.007 10.5242L10.0069 10.5242C9.88573 10.4448 9.81275 10.3097 9.81275 10.1648V2.72194C9.81275 1.99806 9.22373 1.40927 8.49958 1.40927C7.77566 1.40927 7.18679 1.99808 7.18679 2.72194V10.1648C7.18679 10.3096 7.11375 10.4448 6.99259 10.5242C6.20863 11.0378 5.74033 11.9004 5.74033 12.8315C5.74033 14.353 6.97805 15.5907 8.49951 15.5907C10.0211 15.5907 11.259 14.353 11.2591 12.8315C11.2591 11.9004 10.7908 11.0378 10.007 10.5242Z" fill="#212322" stroke="white" stroke-width="0.1"/>
<path d="M8.92923 11.3105V11.3472L8.96421 11.3582C9.59021 11.5553 10.044 12.1401 10.044 12.8315C10.044 13.6843 9.35277 14.3759 8.49959 14.3759C7.64659 14.3759 6.95527 13.6843 6.95527 12.8315C6.95527 12.1402 7.40902 11.5554 8.03497 11.3582L8.06995 11.3472V11.3105V4.97176C8.06995 4.73449 8.26226 4.54213 8.49959 4.54213C8.73692 4.54213 8.92923 4.73449 8.92923 4.97176V11.3105Z" fill="#212322" stroke="white" stroke-width="0.1"/>
</g>
<defs>
<clipPath id="clip0_4860_1390">
<rect width="16" height="16" fill="white" transform="translate(0.5 0.5)"/>
</clipPath>
</defs>
</svg>
