<svg width="25" height="25" viewBox="0 0 25 25" fill="none" xmlns="http://www.w3.org/2000/svg">
<g clip-path="url(#clip0_5370_1262)">
<path d="M19.5 7.5C19.2348 7.5 18.9804 7.60536 18.7929 7.79289C18.6054 7.98043 18.5 8.23478 18.5 8.5V19.691C18.4713 20.1967 18.244 20.6706 17.8675 21.0094C17.491 21.3482 16.9959 21.5246 16.49 21.5H8.51C8.0041 21.5246 7.50898 21.3482 7.13251 21.0094C6.75603 20.6706 6.52869 20.1967 6.5 19.691V8.5C6.5 8.23478 6.39464 7.98043 6.20711 7.79289C6.01957 7.60536 5.76522 7.5 5.5 7.5C5.23478 7.5 4.98043 7.60536 4.79289 7.79289C4.60536 7.98043 4.5 8.23478 4.5 8.5V19.691C4.52854 20.7272 4.96658 21.7099 5.71818 22.4238C6.46978 23.1378 7.47367 23.5247 8.51 23.5H16.49C17.5263 23.5247 18.5302 23.1378 19.2818 22.4238C20.0334 21.7099 20.4715 20.7272 20.5 19.691V8.5C20.5 8.23478 20.3946 7.98043 20.2071 7.79289C20.0196 7.60536 19.7652 7.5 19.5 7.5Z" fill="#BFBFBF" stroke="white"/>
<path d="M20.5 4.5H16.5V2.5C16.5 2.23478 16.3946 1.98043 16.2071 1.79289C16.0196 1.60536 15.7652 1.5 15.5 1.5H9.5C9.23478 1.5 8.98043 1.60536 8.79289 1.79289C8.60536 1.98043 8.5 2.23478 8.5 2.5V4.5H4.5C4.23478 4.5 3.98043 4.60536 3.79289 4.79289C3.60536 4.98043 3.5 5.23478 3.5 5.5C3.5 5.76522 3.60536 6.01957 3.79289 6.20711C3.98043 6.39464 4.23478 6.5 4.5 6.5H20.5C20.7652 6.5 21.0196 6.39464 21.2071 6.20711C21.3946 6.01957 21.5 5.76522 21.5 5.5C21.5 5.23478 21.3946 4.98043 21.2071 4.79289C21.0196 4.60536 20.7652 4.5 20.5 4.5ZM10.5 4.5V3.5H14.5V4.5H10.5Z" fill="#BFBFBF" stroke="white"/>
<path d="M11.5 17.5V10.5C11.5 10.2348 11.3946 9.98043 11.2071 9.79289C11.0196 9.60536 10.7652 9.5 10.5 9.5C10.2348 9.5 9.98043 9.60536 9.79289 9.79289C9.60536 9.98043 9.5 10.2348 9.5 10.5V17.5C9.5 17.7652 9.60536 18.0196 9.79289 18.2071C9.98043 18.3946 10.2348 18.5 10.5 18.5C10.7652 18.5 11.0196 18.3946 11.2071 18.2071C11.3946 18.0196 11.5 17.7652 11.5 17.5Z" fill="#BFBFBF" stroke="white"/>
<path d="M15.5 17.5V10.5C15.5 10.2348 15.3946 9.98043 15.2071 9.79289C15.0196 9.60536 14.7652 9.5 14.5 9.5C14.2348 9.5 13.9804 9.60536 13.7929 9.79289C13.6054 9.98043 13.5 10.2348 13.5 10.5V17.5C13.5 17.7652 13.6054 18.0196 13.7929 18.2071C13.9804 18.3946 14.2348 18.5 14.5 18.5C14.7652 18.5 15.0196 18.3946 15.2071 18.2071C15.3946 18.0196 15.5 17.7652 15.5 17.5Z" fill="#BFBFBF" stroke="white"/>
</g>
<defs>
<clipPath id="clip0_5370_1262">
<rect width="24" height="24" fill="white" transform="translate(0.5 0.5)"/>
</clipPath>
</defs>
</svg>
