<svg width="24" height="25" viewBox="0 0 24 25" fill="none" xmlns="http://www.w3.org/2000/svg">
<g clip-path="url(#clip0_5522_6133)">
<path d="M19 7.5C18.7348 7.5 18.4804 7.60536 18.2929 7.79289C18.1054 7.98043 18 8.23478 18 8.5V19.691C17.9713 20.1967 17.744 20.6706 17.3675 21.0094C16.991 21.3482 16.4959 21.5246 15.99 21.5H8.01C7.5041 21.5246 7.00898 21.3482 6.63251 21.0094C6.25603 20.6706 6.02869 20.1967 6 19.691V8.5C6 8.23478 5.89464 7.98043 5.70711 7.79289C5.51957 7.60536 5.26522 7.5 5 7.5C4.73478 7.5 4.48043 7.60536 4.29289 7.79289C4.10536 7.98043 4 8.23478 4 8.5V19.691C4.02854 20.7272 4.46658 21.7099 5.21818 22.4238C5.96978 23.1378 6.97367 23.5247 8.01 23.5H15.99C17.0263 23.5247 18.0302 23.1378 18.7818 22.4238C19.5334 21.7099 19.9715 20.7272 20 19.691V8.5C20 8.23478 19.8946 7.98043 19.7071 7.79289C19.5196 7.60536 19.2652 7.5 19 7.5Z" fill="#BFBFBF" stroke="white"/>
<path d="M20 4.5H16V2.5C16 2.23478 15.8946 1.98043 15.7071 1.79289C15.5196 1.60536 15.2652 1.5 15 1.5H9C8.73478 1.5 8.48043 1.60536 8.29289 1.79289C8.10536 1.98043 8 2.23478 8 2.5V4.5H4C3.73478 4.5 3.48043 4.60536 3.29289 4.79289C3.10536 4.98043 3 5.23478 3 5.5C3 5.76522 3.10536 6.01957 3.29289 6.20711C3.48043 6.39464 3.73478 6.5 4 6.5H20C20.2652 6.5 20.5196 6.39464 20.7071 6.20711C20.8946 6.01957 21 5.76522 21 5.5C21 5.23478 20.8946 4.98043 20.7071 4.79289C20.5196 4.60536 20.2652 4.5 20 4.5ZM10 4.5V3.5H14V4.5H10Z" fill="#BFBFBF" stroke="white"/>
<path d="M11 17.5V10.5C11 10.2348 10.8946 9.98043 10.7071 9.79289C10.5196 9.60536 10.2652 9.5 10 9.5C9.73478 9.5 9.48043 9.60536 9.29289 9.79289C9.10536 9.98043 9 10.2348 9 10.5V17.5C9 17.7652 9.10536 18.0196 9.29289 18.2071C9.48043 18.3946 9.73478 18.5 10 18.5C10.2652 18.5 10.5196 18.3946 10.7071 18.2071C10.8946 18.0196 11 17.7652 11 17.5Z" fill="#BFBFBF" stroke="white"/>
<path d="M15 17.5V10.5C15 10.2348 14.8946 9.98043 14.7071 9.79289C14.5196 9.60536 14.2652 9.5 14 9.5C13.7348 9.5 13.4804 9.60536 13.2929 9.79289C13.1054 9.98043 13 10.2348 13 10.5V17.5C13 17.7652 13.1054 18.0196 13.2929 18.2071C13.4804 18.3946 13.7348 18.5 14 18.5C14.2652 18.5 14.5196 18.3946 14.7071 18.2071C14.8946 18.0196 15 17.7652 15 17.5Z" fill="#BFBFBF" stroke="white"/>
</g>
<defs>
<clipPath id="clip0_5522_6133">
<rect width="24" height="24" fill="white" transform="translate(0 0.5)"/>
</clipPath>
</defs>
</svg>
