<svg width="25" height="24" viewBox="0 0 25 24" fill="none" xmlns="http://www.w3.org/2000/svg">
<g clip-path="url(#clip0_5098_4009)">
<path d="M23.6853 11.0864L22.051 10.3791L20.6633 7.67856C20.2882 6.93912 19.5273 6.47831 18.6968 6.48367H16.307V5.80853C16.307 4.58685 15.3318 3.59021 14.1101 3.59021H2.68631C1.46463 3.59021 0.500143 4.5922 0.500143 5.80853V16.15C0.489426 16.8948 1.08419 17.5056 1.82899 17.5163C1.83435 17.5163 1.83971 17.5163 1.85042 17.5163H2.13441C2.13441 17.5699 2.12905 17.5913 2.12905 17.6235C2.12369 19.1559 3.36145 20.4044 4.89391 20.4098C6.42637 20.4151 7.67485 19.1774 7.68021 17.6449C7.68021 17.6342 7.68021 17.6288 7.68021 17.6181C7.68021 17.5806 7.6802 17.5645 7.67485 17.511H16.9071C16.9071 17.5645 16.9071 17.586 16.9071 17.6181C16.9018 19.1506 18.1395 20.3991 19.672 20.4044C21.2044 20.4098 22.4529 19.172 22.4583 17.6396C22.4583 17.6288 22.4583 17.6235 22.4583 17.6128C22.4583 17.5753 22.4583 17.5592 22.4583 17.5056H23.1495C23.8943 17.5056 24.4998 16.9001 24.4998 16.1553C24.4998 16.15 24.4998 16.1446 24.4998 16.1339V12.3295C24.5105 11.8044 24.189 11.3061 23.6853 11.0864ZM4.90999 19.3435C3.96693 19.3435 3.20606 18.5826 3.20606 17.6396C3.20606 16.6965 3.96693 15.9356 4.90999 15.9356C5.85304 15.9356 6.61391 16.6965 6.61391 17.6396C6.61391 18.5772 5.84768 19.3435 4.90999 19.3435ZM15.2353 16.4554H7.42301C6.97292 15.4748 5.987 14.8479 4.90999 14.8533C3.82762 14.8479 2.84706 15.4695 2.39696 16.4554H1.85042C1.68432 16.4554 1.57179 16.3268 1.57179 16.1607V13.4012H15.2353V16.4554ZM15.2353 5.81389V12.3295H1.57179V5.81389C1.57179 5.18697 2.05939 4.66722 2.68631 4.66722H14.1101C14.737 4.67258 15.2407 5.18697 15.2353 5.80853V5.81389ZM16.307 7.56068H18.6968C19.1201 7.55532 19.5166 7.78572 19.7148 8.16616L20.7865 10.2398H16.307V7.56068ZM19.6881 19.3435C18.745 19.3435 17.9841 18.5826 17.9841 17.6396C17.9841 16.6965 18.745 15.9356 19.6881 15.9356C20.6311 15.9356 21.392 16.6965 21.392 17.6396C21.392 18.5772 20.6311 19.3435 19.6881 19.3435ZM23.4335 16.1607C23.4335 16.3268 23.321 16.4554 23.1548 16.4554H22.2011C21.5527 15.0676 19.9024 14.4675 18.5146 15.1158C17.9252 15.3891 17.4483 15.866 17.175 16.4554H16.307V11.3115H21.5581L23.262 12.0616C23.3692 12.1152 23.4388 12.2331 23.4335 12.351V16.1607Z" fill="#212322"/>
</g>
<defs>
<clipPath id="clip0_5098_4009">
<rect width="24" height="24" fill="white" transform="translate(0.5)"/>
</clipPath>
</defs>
</svg>
