<svg width="24" height="24" viewBox="0 0 24 24" fill="none" xmlns="http://www.w3.org/2000/svg">
<rect width="24" height="24" rx="12" fill="#FCE300"/>
<g clip-path="url(#clip0_5098_3992)">
<path d="M12.0002 6.97332C9.22839 6.97332 6.97344 9.22826 6.97344 12C6.97344 14.7718 9.22839 17.0268 12.0002 17.0268C14.7719 17.0268 17.0269 14.7718 17.0269 12C17.0269 9.22826 14.7719 6.97332 12.0002 6.97332ZM12.0002 16.3018C9.62821 16.3018 7.69844 14.372 7.69844 12C7.69844 9.62809 9.62821 7.69832 12.0002 7.69832C14.3721 7.69832 16.3019 9.62809 16.3019 12C16.3019 14.372 14.3721 16.3018 12.0002 16.3018Z" fill="#212322" stroke="#212322" stroke-width="0.1"/>
<path d="M12 6.15291C12.0961 6.15291 12.1883 6.11471 12.2563 6.04673C12.3243 5.97875 12.3625 5.88655 12.3625 5.79041V4.3125C12.3625 4.21636 12.3243 4.12416 12.2563 4.05617C12.1883 3.98819 12.0961 3.95 12 3.95C11.9039 3.95 11.8117 3.98819 11.7437 4.05617C11.6757 4.12416 11.6375 4.21636 11.6375 4.3125V5.79041C11.6375 5.88655 11.6757 5.97875 11.7437 6.04673C11.8117 6.11471 11.9039 6.15291 12 6.15291Z" fill="#212322" stroke="#212322" stroke-width="0.1"/>
<path d="M12 17.8471C11.9039 17.8471 11.8117 17.8853 11.7437 17.9533C11.6757 18.0213 11.6375 18.1135 11.6375 18.2096V19.6875C11.6375 19.7836 11.6757 19.8758 11.7437 19.9438C11.8117 20.0118 11.9039 20.05 12 20.05C12.0961 20.05 12.1883 20.0118 12.2563 19.9438C12.3243 19.8758 12.3625 19.7836 12.3625 19.6875V18.2096C12.3625 18.1135 12.3243 18.0213 12.2563 17.9533C12.1883 17.8853 12.0961 17.8471 12 17.8471Z" fill="#212322" stroke="#212322" stroke-width="0.1"/>
<path d="M9.20823 6.44115L9.20823 6.44115L8.46942 5.16153C8.4694 5.16148 8.46937 5.16143 8.46934 5.16138C8.44572 5.11989 8.41414 5.08346 8.3764 5.05421C8.33861 5.02492 8.29541 5.00339 8.24928 4.99086C8.20314 4.97834 8.15498 4.97506 8.10757 4.98122C8.06016 4.98738 8.01444 5.00286 7.97304 5.02677C7.93164 5.05067 7.89538 5.08253 7.86634 5.1205C7.8373 5.15848 7.81606 5.20182 7.80384 5.24804C7.79162 5.29426 7.78866 5.34244 7.79514 5.38981C7.80161 5.43712 7.81736 5.48268 7.84149 5.52388C7.84152 5.52393 7.84155 5.52398 7.84157 5.52403L8.58034 6.80365C8.62841 6.88691 8.70759 6.94767 8.80046 6.97255C8.89332 6.99744 8.99227 6.98441 9.07554 6.93634C9.1588 6.88827 9.21956 6.80909 9.24444 6.71623C9.26932 6.62336 9.2563 6.52441 9.20823 6.44115Z" fill="#212322" stroke="#212322" stroke-width="0.1"/>
<path d="M14.7915 17.5589L14.7915 17.5589L15.5303 18.8386C15.5304 18.8386 15.5304 18.8387 15.5304 18.8387C15.554 18.8802 15.5856 18.9166 15.6234 18.9459C15.6611 18.9752 15.7044 18.9967 15.7505 19.0092C15.7966 19.0218 15.8448 19.025 15.8922 19.0189C15.9396 19.0127 15.9853 18.9972 16.0267 18.9733C16.0681 18.9494 16.1044 18.9176 16.1334 18.8796C16.1625 18.8416 16.1837 18.7983 16.1959 18.752C16.2081 18.7058 16.2111 18.6577 16.2046 18.6103C16.1982 18.563 16.1824 18.5174 16.1583 18.4762C16.1582 18.4762 16.1582 18.4761 16.1582 18.4761L15.4194 17.1964C15.3713 17.1132 15.2922 17.0524 15.1993 17.0275C15.1064 17.0027 15.0075 17.0157 14.9242 17.0638C14.841 17.1118 14.7802 17.191 14.7553 17.2839C14.7304 17.3767 14.7435 17.4757 14.7915 17.5589Z" fill="#212322" stroke="#212322" stroke-width="0.1"/>
<path d="M6.44029 9.2092L6.4403 9.20921C6.52356 9.25728 6.62251 9.2703 6.71537 9.24542C6.80824 9.22053 6.88742 9.15977 6.93549 9.07651C6.98356 8.99325 6.99658 8.8943 6.9717 8.80144C6.94681 8.70857 6.88606 8.62939 6.80279 8.58132L5.52318 7.84255C5.52313 7.84252 5.52308 7.84249 5.52303 7.84246C5.48183 7.81834 5.43626 7.80258 5.38895 7.79612C5.34159 7.78964 5.29341 7.7926 5.24719 7.80481C5.20097 7.81703 5.15762 7.83828 5.11965 7.86731C5.08167 7.89635 5.04982 7.93262 5.02591 7.97402C5.00201 8.01542 4.98653 8.06114 4.98037 8.10855C4.97421 8.15596 4.97748 8.20412 4.99001 8.25025C5.00253 8.29639 5.02406 8.33959 5.05335 8.37737C5.08261 8.41511 5.11903 8.4467 5.16053 8.47032C5.16058 8.47035 5.16063 8.47037 5.16068 8.4704L6.44029 9.2092Z" fill="#212322" stroke="#212322" stroke-width="0.1"/>
<path d="M17.5582 14.7908L17.5582 14.7908C17.4749 14.7427 17.376 14.7297 17.2831 14.7546C17.1903 14.7795 17.1111 14.8402 17.063 14.9235C17.0149 15.0068 17.0019 15.1057 17.0268 15.1986C17.0517 15.2914 17.1124 15.3706 17.1957 15.4187L18.4753 16.1575C18.4754 16.1575 18.4754 16.1575 18.4755 16.1575C18.5167 16.1817 18.5622 16.1974 18.6096 16.2039C18.6569 16.2104 18.7051 16.2074 18.7513 16.1952C18.7975 16.183 18.8409 16.1617 18.8789 16.1327C18.9168 16.1037 18.9487 16.0674 18.9726 16.026C18.9965 15.9846 19.012 15.9389 19.0181 15.8915C19.0243 15.8441 19.021 15.7959 19.0085 15.7498C18.996 15.7036 18.9744 15.6604 18.9452 15.6226C18.9159 15.5849 18.8795 15.5533 18.838 15.5297C18.8379 15.5297 18.8379 15.5296 18.8378 15.5296L17.5582 14.7908Z" fill="#212322" stroke="#212322" stroke-width="0.1"/>
<path d="M6.15291 12C6.15291 11.9039 6.11471 11.8117 6.04673 11.7437C5.97875 11.6757 5.88655 11.6375 5.79041 11.6375H4.3125C4.21636 11.6375 4.12416 11.6757 4.05617 11.7437C3.98819 11.8117 3.95 11.9039 3.95 12C3.95 12.0961 3.98819 12.1883 4.05617 12.2563C4.12416 12.3243 4.21636 12.3625 4.3125 12.3625H5.79041C5.88655 12.3625 5.97875 12.3243 6.04673 12.2563C6.11471 12.1883 6.15291 12.0961 6.15291 12Z" fill="#212322" stroke="#212322" stroke-width="0.1"/>
<path d="M19.6869 11.6375H18.209C18.1128 11.6375 18.0206 11.6757 17.9527 11.7437C17.8847 11.8117 17.8465 11.9039 17.8465 12C17.8465 12.0961 17.8847 12.1883 17.9527 12.2563C18.0206 12.3243 18.1128 12.3625 18.209 12.3625H19.6869C19.783 12.3625 19.8752 12.3243 19.9432 12.2563C20.0112 12.1883 20.0494 12.0961 20.0494 12C20.0494 11.9039 20.0112 11.8117 19.9432 11.7437C19.8752 11.6757 19.783 11.6375 19.6869 11.6375Z" fill="#212322" stroke="#212322" stroke-width="0.1"/>
<path d="M6.4403 14.7908L6.44029 14.7908L5.16068 15.5296C5.16063 15.5296 5.16058 15.5297 5.16053 15.5297C5.11903 15.5533 5.08261 15.5849 5.05335 15.6226C5.02406 15.6604 5.00253 15.7036 4.99001 15.7498C4.97748 15.7959 4.97421 15.8441 4.98037 15.8915C4.98653 15.9389 5.00201 15.9846 5.02591 16.026C5.04982 16.0674 5.08167 16.1037 5.11965 16.1327C5.15762 16.1617 5.20097 16.183 5.24719 16.1952C5.29341 16.2074 5.34159 16.2104 5.38895 16.2039C5.43626 16.1974 5.48183 16.1817 5.52303 16.1575C5.52308 16.1575 5.52313 16.1575 5.52318 16.1575L6.80279 15.4187C6.88606 15.3706 6.94681 15.2914 6.9717 15.1986C6.99658 15.1057 6.98356 15.0068 6.93549 14.9235C6.88742 14.8402 6.80824 14.7795 6.71537 14.7546C6.62251 14.7297 6.52356 14.7427 6.4403 14.7908Z" fill="#212322" stroke="#212322" stroke-width="0.1"/>
<path d="M17.3774 9.25781C17.4409 9.2578 17.5033 9.24104 17.5583 9.2092L17.2208 8.62462C17.1612 8.65902 17.1146 8.71214 17.0882 8.77574C17.0619 8.83934 17.0573 8.90985 17.0751 8.97633C17.093 9.04282 17.1323 9.10155 17.1869 9.1434C17.2416 9.18526 17.3085 9.2079 17.3774 9.20781L17.3774 9.25781C17.3774 9.25781 17.3774 9.25781 17.3774 9.25781ZM18.4754 7.84255L17.1958 8.58131L17.5584 9.20917L18.8379 8.4704C18.838 8.47037 18.838 8.47034 18.8381 8.47032C18.8796 8.4467 18.916 8.41511 18.9452 8.37737C18.9745 8.33959 18.9961 8.29639 19.0086 8.25025C19.0211 8.20412 19.0244 8.15596 19.0182 8.10855C19.0121 8.06114 18.9966 8.01542 18.9727 7.97402C18.9488 7.93262 18.9169 7.89635 18.8789 7.86731C18.841 7.83828 18.7976 7.81703 18.7514 7.80481C18.7052 7.7926 18.657 7.78964 18.6096 7.79612C18.5623 7.80258 18.5168 7.81833 18.4756 7.84246C18.4755 7.84249 18.4755 7.84252 18.4754 7.84255Z" fill="#212322" stroke="#212322" stroke-width="0.1"/>
<path d="M9.07552 17.0638C8.99226 17.0157 8.89332 17.0027 8.80046 17.0275C8.70759 17.0524 8.62842 17.1132 8.58035 17.1964L8.58034 17.1964L7.84157 18.476C7.84154 18.4761 7.84152 18.4761 7.84149 18.4762C7.81736 18.5174 7.80161 18.563 7.79514 18.6103C7.78866 18.6576 7.79162 18.7058 7.80384 18.752C7.81606 18.7983 7.8373 18.8416 7.86634 18.8796C7.89538 18.9175 7.93164 18.9494 7.97304 18.9733C8.01444 18.9972 8.06017 19.0127 8.10757 19.0189C8.15498 19.025 8.20314 19.0217 8.24928 19.0092C8.29541 18.9967 8.33861 18.9752 8.3764 18.9459C8.41413 18.9166 8.44572 18.8802 8.46934 18.8387L8.46926 18.8388L8.42596 18.8138L8.46942 18.8385L9.20823 17.5589L9.20823 17.5589C9.2563 17.4757 9.26932 17.3767 9.24443 17.2839C9.21954 17.191 9.15878 17.1118 9.07552 17.0638ZM9.07552 17.0638L9.05053 17.107L9.07552 17.0637C9.07552 17.0637 9.07552 17.0638 9.07552 17.0638Z" fill="#212322" stroke="#212322" stroke-width="0.1"/>
<path d="M15.4194 6.80365L15.4194 6.80365L16.1582 5.52403C16.1582 5.52398 16.1582 5.52393 16.1583 5.52388C16.1824 5.48268 16.1981 5.43711 16.2046 5.38981C16.2111 5.34244 16.2081 5.29426 16.1959 5.24804C16.1837 5.20182 16.1625 5.15848 16.1334 5.1205C16.1044 5.08253 16.0681 5.05067 16.0267 5.02677C15.9853 5.00286 15.9396 4.98738 15.8922 4.98122C15.8448 4.97506 15.7966 4.97834 15.7505 4.99086C15.7043 5.00339 15.6611 5.02492 15.6234 5.05421C15.5856 5.08346 15.554 5.11989 15.5304 5.16138C15.5304 5.16143 15.5304 5.16148 15.5303 5.16153L14.7915 6.44115L14.7915 6.44115C14.7435 6.52442 14.7304 6.62336 14.7553 6.71622C14.7802 6.80909 14.841 6.88826 14.9242 6.93633C15.0075 6.98439 15.1064 6.99742 15.1993 6.97254C15.2922 6.94766 15.3713 6.88691 15.4194 6.80365Z" fill="#212322" stroke="#212322" stroke-width="0.1"/>
</g>
<defs>
<clipPath id="clip0_5098_3992">
<rect width="16" height="16" fill="white" transform="translate(4 4)"/>
</clipPath>
</defs>
</svg>
